<svg xmlns:xodm="http://www.corel.com/coreldraw/odm/2003" xmlns="http://www.w3.org/2000/svg" xmlns:xlink="http://www.w3.org/1999/xlink" id="&#x421;&#x43B;&#x43E;&#x439;_1" x="0px" y="0px" viewBox="0 0 356.4 104.5" style="enable-background:new 0 0 356.4 104.5;" xml:space="preserve">
<style type="text/css">
	.st0{fill-rule:evenodd;clip-rule:evenodd;fill:#FEFEFE;}
	.st1{fill-rule:evenodd;clip-rule:evenodd;fill:#009846;}
	.st2{fill-rule:evenodd;clip-rule:evenodd;fill:#006CB5;}
	.st3{fill-rule:evenodd;clip-rule:evenodd;fill:#1CBBEE;}
	.st4{fill-rule:evenodd;clip-rule:evenodd;fill:#FFDD00;}
	.st5{fill-rule:evenodd;clip-rule:evenodd;fill:#FFFFFF;}
	.st6{fill:#FFFFFF;}
</style>
<g id="&#x421;&#x43B;&#x43E;&#x439;_x0020_1">
	<g id="TEZ_TOUR_logo_horizontal_cmyk_8608.cdr">
		<path class="st0" d="M6.9,24.1c-3.2,4.9,9.4,8,8.4,13.8c-1.4,9-4,19.3-5,24.6c-1,5-9.1,6.1-10.2,11.1c-0.8,3.9,4.1,6.2,8.1,7.8    c8.3,3.4,1.2,16.8,11,20.3c12.4,4.4,20.7-5.8,33.8-4.5c15.3,1.4,33.1,9.4,48.2,7c8.7-1.4,14.2-10.3,18.5-18    c2.1-3.8-3.5-6.8-2.3-11c1.1-4,11.1-4.4,11.1-8.5c0-4.9-8.7-6-9.9-10.8c-1.5-6.2,4-12.5,0.4-20C112.8,22.9,132.4,3,103.5,7.6    C93.3,9.3,80.9,21.7,70.9,19c-5.4-1.4,14.1-15.6,2.9-18.3C56.6-3.5,15,11.5,6.9,24.1L6.9,24.1z"></path>
		<path class="st1" d="M8.3,70.4c1.3-2.7,17.5-15.2,32.2-26.3c6.5-4.9,17.6,16.2,25.6,14.8C71.5,58,76.3,29.5,87.6,37    c15.2,10.1,40.5,29,31.3,31.7c-17.7,5.1-35.2,10.1-55.8,11.4c-4.8,0.3-7.8,0.5-7-4.9c0.5-3.6,0.8-8.6-6.2-8.3    C32.3,67.6,2.2,83.4,8.3,70.4L8.3,70.4z"></path>
		<path class="st2" d="M114.2,79.2c0.2,7-3.8,16-8.6,18c-14.2,5.4-30.9-5.1-46.1-4.8C44.3,92.6,40.4,98,26,95.5    c-4.6-0.8-9.1-3.3-11.2-8.2c-3.5-8.5-1.8-7.4,5.7-9.4c8.9-2.4,19.3-7,27.5-5.5c2.4,0.9-2.4,10.9,2.9,10.3    c18.2-0.5,36.4-0.9,54.5-6C109.2,75.6,114.1,74.2,114.2,79.2L114.2,79.2z"></path>
		<path class="st3" d="M15.4,21.5C20.5,14.2,51,6.2,68.3,6.9c7.5,0.3-10.4,16.5-2.6,18.2c7.6,1.7,28-10.9,35.1-11.3    c5.8-0.3,14.7,2.1,11.9,13.3c-1.1,4.3,1.7,6.4,2.8,12.3c3.1,16.1-5.3,9.5-11.6,4.5C98.7,40,93.5,35.8,90,33.5    C78.7,26,67.9,50.1,62.6,51C54.6,52.4,45,34.5,38.5,39.4c-7.7,6.9,0.5-1.1-17.2,15.1c-7.6,7-7.7,1.7-5.7-5.6    c1.5-5.3,3.1-7.8,3.6-13.8C19.6,31.3,13.2,24.5,15.4,21.5L15.4,21.5z"></path>
		<path class="st0" d="M42.1,15.4c5.6,0,11.8,4.3,11.8,9c0,4.7-6.7,9-12.3,9c-5.6,0-9.2-4.8-9.2-9.5C32.4,19.3,36.5,15.4,42.1,15.4z    "></path>
		<path class="st4" d="M51.2,24.5c0,4.2-3.7,7.6-8.3,7.6c-4.6,0-8.3-3.4-8.3-7.6c0-4.2,3.7-7.6,8.3-7.6    C47.5,16.9,51.2,20.3,51.2,24.5z"></path>
		<polygon class="st5" points="284.9,19.4 284.9,26.8 321.4,26.8 284.9,49.4 284.9,56.7 356.1,56.7 356.1,49.3 320.9,49.3     356.1,26.9 356.1,19.4   "></polygon>
		<polygon class="st5" points="212.1,56.7 278.5,56.7 278.5,49.6 241.5,49.6 241.5,41.1 277.4,41.1 277.4,34.6 241.5,34.6     241.5,26.4 278.5,26.4 278.5,19.4 212.1,19.4   "></polygon>
		<polygon class="st5" points="137.3,19.4 137.3,26.8 157.1,26.8 157.1,56.7 186.4,56.7 186.4,26.8 206.4,26.8 206.4,19.4   "></polygon>
		<path class="st5" d="M242.4,78c0,1.9-1.7,3.4-5,4.4c-3.3,1-8.2,1.6-14.5,1.6c-6.3,0-11.2-0.5-14.6-1.5c-3.4-1-5.1-2.5-5.1-4.5    v-4.4c0-1.9,1.7-3.4,5.1-4.5c3.4-1,8.2-1.5,14.6-1.5c6.3,0,11.1,0.5,14.5,1.6c3.3,1,5,2.5,5,4.4V78L242.4,78z M213.4,74L213.4,74    v3.7c0,1.2,0.7,2.1,2.3,2.7c1.5,0.6,3.9,0.8,7.2,0.8c3.3,0,5.7-0.3,7.2-0.8c1.5-0.6,2.3-1.4,2.3-2.7V74c0-1.2-0.8-2.1-2.3-2.7    c-1.5-0.6-3.9-0.8-7.2-0.8c-3.3,0-5.7,0.3-7.2,0.8C214.2,71.9,213.4,72.8,213.4,74z M173.9,84L173.9,84V70.4h-14.5v-2.8h39.1v2.8    H184V84H173.9L173.9,84z M249,67.7L249,67.7h10.1v10c0,1.2,0.7,2.1,2.3,2.7c1.5,0.6,3.9,0.8,7.2,0.8c3.3,0,5.7-0.3,7.2-0.8    c1.5-0.6,2.3-1.4,2.3-2.7v-10h10.1v10.4c0,1.9-1.7,3.4-5,4.4c-3.4,1-8.2,1.6-14.5,1.6c-6.3,0-11.2-0.5-14.6-1.5    c-3.4-1-5.1-2.5-5.1-4.5V67.7z M304.8,74.8L304.8,74.8h12.9c1.3,0,6.3,0,6.3-2.1c0-1.9-4.6-2.3-5.8-2.3h-13.4L304.8,74.8    L304.8,74.8z M294.8,84L294.8,84V67.6h24.8c9.9,0,13.2,2.8,13.2,4.7c0,1.9-1.8,3.1-3.8,3.6c3.3,1,4.9,2.5,4.9,4.4v3.8h-10V82    l0-1.5c-0.1-1.2-0.8-2-2.3-2.5c-1.4-0.5-3.5-0.5-5-0.5h-11.8V84L294.8,84L294.8,84z M137.2,63L137.2,63h219.2v25.9H137.2L137.2,63    L137.2,63z"></path>
	</g>
</g>
<g>
	<path class="st6" d="M137.6,94.2c0-0.1-0.1-0.1-0.1-0.2c0-0.1,0-0.1,0.1-0.2c0.1-0.1,0.1-0.1,0.2-0.1h0.5c0.2,0,0.3,0,0.3,0.1   c0.1,0.1,0.1,0.1,0.2,0.2l2.2,4.2l2.2-4.2c0-0.1,0.1-0.1,0.2-0.2c0.1-0.1,0.2-0.1,0.3-0.1h0.5c0.1,0,0.1,0,0.2,0.1   c0.1,0.1,0.1,0.1,0.1,0.2c0,0,0,0.1-0.1,0.2l-2.9,5.5c-0.2,0.3-0.3,0.6-0.5,0.9s-0.3,0.6-0.6,0.8c-0.2,0.2-0.4,0.4-0.7,0.6   c-0.3,0.1-0.5,0.2-0.9,0.2h-0.6c-0.1,0-0.2,0-0.2-0.1c-0.1-0.1-0.1-0.1-0.1-0.2v-0.4c0-0.1,0-0.2,0.1-0.2c0.1-0.1,0.1-0.1,0.2-0.1   h0.5c0.2,0,0.3,0,0.4-0.1c0.1-0.1,0.3-0.2,0.4-0.4c0.1-0.2,0.2-0.3,0.3-0.5c0.1-0.2,0.2-0.4,0.3-0.6L137.6,94.2z"></path>
	<path class="st6" d="M152.5,95.9c0.1,0,0.2,0,0.2,0.1c0.1,0.1,0.1,0.1,0.1,0.2v5.6c0,0.1,0,0.2-0.1,0.2c-0.1,0.1-0.1,0.1-0.2,0.1   h-0.4c-0.1,0-0.2,0-0.2-0.1c-0.1-0.1-0.1-0.1-0.1-0.2v-4.9h-3.4v4.9c0,0.1,0,0.2-0.1,0.2c-0.1,0.1-0.1,0.1-0.2,0.1h-0.4   c-0.1,0-0.2,0-0.2-0.1c-0.1-0.1-0.1-0.1-0.1-0.2v-5.6c0-0.1,0-0.2,0.1-0.2c0.1-0.1,0.1-0.1,0.2-0.1H152.5z"></path>
	<path class="st6" d="M159.6,95.8c0.4,0,0.8,0.1,1.2,0.2s0.6,0.3,0.9,0.5c0.2,0.2,0.4,0.5,0.6,0.8c0.1,0.3,0.2,0.7,0.3,1.1   c0,0.1,0,0.2,0,0.3c0,0.1,0,0.2,0,0.3s0,0.2,0,0.3c0,0.1,0,0.2,0,0.2c0,0.4-0.1,0.8-0.3,1.1c-0.1,0.3-0.3,0.6-0.6,0.8   c-0.2,0.2-0.5,0.4-0.9,0.5s-0.7,0.2-1.2,0.2s-0.8-0.1-1.2-0.2c-0.3-0.1-0.6-0.3-0.9-0.5c-0.2-0.2-0.4-0.5-0.6-0.8   c-0.1-0.3-0.2-0.7-0.3-1.1c0-0.1,0-0.1,0-0.2c0-0.1,0-0.2,0-0.3s0-0.2,0-0.3c0-0.1,0-0.2,0-0.3c0-0.4,0.1-0.8,0.3-1.1   c0.1-0.3,0.3-0.6,0.6-0.8c0.2-0.2,0.5-0.4,0.9-0.5C158.8,95.8,159.2,95.8,159.6,95.8z M161.4,99.5c0-0.1,0-0.3,0-0.5s0-0.4,0-0.5   c0-0.2-0.1-0.5-0.2-0.7c-0.1-0.2-0.2-0.4-0.3-0.5c-0.1-0.2-0.3-0.3-0.5-0.4s-0.5-0.1-0.7-0.1c-0.3,0-0.5,0-0.7,0.1   s-0.4,0.2-0.5,0.4c-0.1,0.2-0.3,0.3-0.3,0.5s-0.1,0.4-0.2,0.7c0,0.1,0,0.3,0,0.5s0,0.4,0,0.5c0,0.2,0.1,0.5,0.2,0.7   s0.2,0.4,0.3,0.5c0.1,0.2,0.3,0.3,0.5,0.4s0.5,0.1,0.7,0.1c0.3,0,0.5,0,0.7-0.1s0.4-0.2,0.5-0.4c0.1-0.2,0.3-0.3,0.3-0.5   C161.3,100,161.3,99.8,161.4,99.5z"></path>
	<path class="st6" d="M167.1,96c0.1-0.1,0.1-0.1,0.2-0.1h4c0.1,0,0.2,0,0.2,0.1c0.1,0.1,0.1,0.1,0.1,0.2v5.6c0,0.1,0,0.2-0.1,0.2   c-0.1,0.1-0.1,0.1-0.2,0.1h-0.4c-0.1,0-0.2,0-0.2-0.1c-0.1-0.1-0.1-0.1-0.1-0.2v-4.9H168v3.1c0,0.3,0,0.6-0.1,0.9   c-0.1,0.3-0.2,0.5-0.3,0.7s-0.4,0.3-0.6,0.5c-0.3,0.1-0.6,0.2-0.9,0.2h-0.1c-0.1,0-0.2,0-0.2-0.1c-0.1-0.1-0.1-0.1-0.1-0.2v-0.4   c0-0.1,0-0.2,0.1-0.2c0.1-0.1,0.1-0.1,0.2-0.1h0.1c0.4,0,0.6-0.1,0.7-0.3s0.2-0.5,0.2-0.9v-3.8C167,96.1,167,96.1,167.1,96z"></path>
	<path class="st6" d="M181.1,95.9c0.1,0,0.2,0,0.2,0.1c0.1,0.1,0.1,0.1,0.1,0.2v5.6c0,0.1,0,0.2-0.1,0.2c-0.1,0.1-0.1,0.1-0.2,0.1   h-0.4c-0.1,0-0.2,0-0.2-0.1c-0.1-0.1-0.1-0.1-0.1-0.2v-2.3h-3.4v2.3c0,0.1,0,0.2-0.1,0.2c-0.1,0.1-0.1,0.1-0.2,0.1h-0.4   c-0.1,0-0.2,0-0.2-0.1c-0.1-0.1-0.1-0.1-0.1-0.2v-5.6c0-0.1,0-0.2,0.1-0.2c0.1-0.1,0.1-0.1,0.2-0.1h0.4c0.1,0,0.2,0,0.2,0.1   c0.1,0.1,0.1,0.1,0.1,0.2v2.2h3.4v-2.2c0-0.1,0-0.2,0.1-0.2c0.1-0.1,0.1-0.1,0.2-0.1H181.1z"></path>
	<path class="st6" d="M188.2,95.8c0.4,0,0.8,0.1,1.2,0.2s0.6,0.3,0.9,0.5c0.2,0.2,0.4,0.5,0.6,0.8s0.2,0.7,0.3,1.1   c0,0.1,0,0.2,0,0.3c0,0.1,0,0.2,0,0.3s0,0.2,0,0.3c0,0.1,0,0.2,0,0.2c0,0.4-0.1,0.8-0.3,1.1s-0.3,0.6-0.6,0.8   c-0.2,0.2-0.5,0.4-0.9,0.5s-0.7,0.2-1.2,0.2c-0.4,0-0.8-0.1-1.2-0.2c-0.3-0.1-0.6-0.3-0.9-0.5c-0.2-0.2-0.4-0.5-0.6-0.8   s-0.2-0.7-0.3-1.1c0-0.1,0-0.1,0-0.2c0-0.1,0-0.2,0-0.3s0-0.2,0-0.3c0-0.1,0-0.2,0-0.3c0-0.4,0.1-0.8,0.3-1.1s0.3-0.6,0.6-0.8   s0.5-0.4,0.9-0.5C187.4,95.8,187.7,95.8,188.2,95.8z M189.9,99.5c0-0.1,0-0.3,0-0.5s0-0.4,0-0.5c0-0.2-0.1-0.5-0.2-0.7   c-0.1-0.2-0.2-0.4-0.3-0.5c-0.1-0.2-0.3-0.3-0.5-0.4s-0.5-0.1-0.7-0.1s-0.5,0-0.7,0.1s-0.4,0.2-0.5,0.4c-0.1,0.2-0.3,0.3-0.3,0.5   s-0.1,0.4-0.2,0.7c0,0.1,0,0.3,0,0.5s0,0.4,0,0.5c0,0.2,0.1,0.5,0.2,0.7s0.2,0.4,0.3,0.5c0.1,0.2,0.3,0.3,0.5,0.4s0.5,0.1,0.7,0.1   s0.5,0,0.7-0.1s0.4-0.2,0.5-0.4c0.1-0.2,0.3-0.3,0.3-0.5C189.8,100,189.9,99.8,189.9,99.5z"></path>
	<path class="st6" d="M198,99.7l1.9-3.6c0,0,0.1-0.1,0.1-0.2s0.2-0.1,0.3-0.1h0.4c0.1,0,0.2,0,0.2,0.1c0.1,0.1,0.1,0.1,0.1,0.2v5.6   c0,0.1,0,0.2-0.1,0.2c-0.1,0.1-0.1,0.1-0.2,0.1h-0.4c-0.1,0-0.2,0-0.2-0.1c-0.1-0.1-0.1-0.1-0.1-0.2v-3.6l-1.4,2.6   c0,0.1-0.1,0.1-0.2,0.2s-0.2,0.1-0.3,0.1h-0.3c-0.1,0-0.2,0-0.3-0.1c-0.1-0.1-0.1-0.1-0.1-0.2l-1.4-2.6v3.6c0,0.1,0,0.2-0.1,0.2   c-0.1,0.1-0.1,0.1-0.2,0.1h-0.4c-0.1,0-0.2,0-0.2-0.1c-0.1-0.1-0.1-0.1-0.1-0.2v-5.6c0-0.1,0-0.2,0.1-0.2c0.1-0.1,0.1-0.1,0.2-0.1   h0.4c0.1,0,0.2,0,0.3,0.1c0.1,0.1,0.1,0.1,0.1,0.2L198,99.7z"></path>
	<path class="st6" d="M207.8,95.8c0.4,0,0.8,0.1,1.2,0.2s0.6,0.3,0.9,0.5c0.2,0.2,0.4,0.5,0.6,0.8s0.2,0.7,0.3,1.1   c0,0.1,0,0.2,0,0.3c0,0.1,0,0.2,0,0.3s0,0.2,0,0.3c0,0.1,0,0.2,0,0.2c0,0.4-0.1,0.8-0.3,1.1s-0.3,0.6-0.6,0.8   c-0.2,0.2-0.5,0.4-0.9,0.5s-0.7,0.2-1.2,0.2c-0.4,0-0.8-0.1-1.2-0.2c-0.3-0.1-0.6-0.3-0.9-0.5c-0.2-0.2-0.4-0.5-0.6-0.8   s-0.2-0.7-0.3-1.1c0-0.1,0-0.1,0-0.2c0-0.1,0-0.2,0-0.3s0-0.2,0-0.3c0-0.1,0-0.2,0-0.3c0-0.4,0.1-0.8,0.3-1.1s0.3-0.6,0.6-0.8   s0.5-0.4,0.9-0.5C207,95.8,207.4,95.8,207.8,95.8z M209.6,99.5c0-0.1,0-0.3,0-0.5s0-0.4,0-0.5c0-0.2-0.1-0.5-0.2-0.7   c-0.1-0.2-0.2-0.4-0.3-0.5c-0.1-0.2-0.3-0.3-0.5-0.4s-0.5-0.1-0.7-0.1s-0.5,0-0.7,0.1s-0.4,0.2-0.5,0.4c-0.1,0.2-0.3,0.3-0.3,0.5   s-0.1,0.4-0.2,0.7c0,0.1,0,0.3,0,0.5s0,0.4,0,0.5c0,0.2,0.1,0.5,0.2,0.7s0.2,0.4,0.3,0.5c0.1,0.2,0.3,0.3,0.5,0.4s0.5,0.1,0.7,0.1   s0.5,0,0.7-0.1s0.4-0.2,0.5-0.4c0.1-0.2,0.3-0.3,0.3-0.5C209.5,100,209.6,99.8,209.6,99.5z"></path>
	<path class="st6" d="M215.2,97.2c0,0.6,0.1,1,0.4,1.3c0.3,0.3,0.7,0.4,1.2,0.4h1.7v-2.7c0-0.1,0-0.2,0.1-0.2   c0.1-0.1,0.1-0.1,0.2-0.1h0.4c0.1,0,0.2,0,0.2,0.1c0.1,0.1,0.1,0.1,0.1,0.2v5.6c0,0.1,0,0.2-0.1,0.2c-0.1,0.1-0.1,0.1-0.2,0.1H219   c-0.1,0-0.2,0-0.2-0.1c-0.1-0.1-0.1-0.1-0.1-0.2V100h-1.8c-0.8,0-1.5-0.2-2-0.7c-0.5-0.5-0.7-1.1-0.7-2v-1.1c0-0.1,0-0.2,0.1-0.2   c0.1-0.1,0.1-0.1,0.2-0.1h0.4c0.1,0,0.2,0,0.2,0.1c0.1,0.1,0.1,0.1,0.1,0.2V97.2z"></path>
	<path class="st6" d="M223.6,98.4c0-0.4,0.1-0.7,0.3-1c0.1-0.3,0.3-0.6,0.6-0.8c0.2-0.2,0.5-0.4,0.8-0.6s0.7-0.2,1.1-0.2   c0.4,0,0.8,0.1,1.2,0.2c0.3,0.1,0.6,0.3,0.9,0.6c0.2,0.3,0.4,0.6,0.6,1s0.2,0.8,0.2,1.3v0.3c0,0.1,0,0.2-0.1,0.2   c-0.1,0.1-0.1,0.1-0.2,0.1h-4.1v0.1c0,0.5,0.2,1,0.5,1.3s0.7,0.4,1.2,0.4c0.4,0,0.8-0.1,1-0.2c0.2-0.1,0.4-0.3,0.5-0.4   c0.1-0.1,0.1-0.1,0.2-0.1c0,0,0.1,0,0.2,0h0.4c0.1,0,0.2,0,0.2,0.1c0.1,0.1,0.1,0.1,0.1,0.2c0,0.1-0.1,0.3-0.2,0.5   c-0.1,0.2-0.3,0.3-0.5,0.5c-0.2,0.1-0.5,0.3-0.8,0.4c-0.3,0.1-0.7,0.2-1.1,0.2c-0.4,0-0.8-0.1-1.1-0.2c-0.3-0.1-0.6-0.3-0.8-0.6   s-0.4-0.5-0.6-0.9c-0.1-0.3-0.2-0.7-0.3-1.1C223.6,99.2,223.6,98.8,223.6,98.4z M224.7,98.5h3.4v0c0-0.5-0.2-0.9-0.5-1.2   c-0.3-0.3-0.7-0.4-1.2-0.4c-0.2,0-0.4,0-0.6,0.1c-0.2,0.1-0.4,0.2-0.5,0.3c-0.2,0.1-0.3,0.3-0.4,0.5   C224.8,98,224.7,98.2,224.7,98.5L224.7,98.5z"></path>
	<path class="st6" d="M238.2,95.9c0.1,0,0.2,0,0.2,0.1c0.1,0.1,0.1,0.1,0.1,0.2v5.6c0,0.1,0,0.2-0.1,0.2c-0.1,0.1-0.1,0.1-0.2,0.1   h-0.4c-0.1,0-0.2,0-0.2-0.1c-0.1-0.1-0.1-0.1-0.1-0.2v-2.3h-3.4v2.3c0,0.1,0,0.2-0.1,0.2c-0.1,0.1-0.1,0.1-0.2,0.1h-0.4   c-0.1,0-0.2,0-0.2-0.1c-0.1-0.1-0.1-0.1-0.1-0.2v-5.6c0-0.1,0-0.2,0.1-0.2c0.1-0.1,0.1-0.1,0.2-0.1h0.4c0.1,0,0.2,0,0.2,0.1   c0.1,0.1,0.1,0.1,0.1,0.2v2.2h3.4v-2.2c0-0.1,0-0.2,0.1-0.2c0.1-0.1,0.1-0.1,0.2-0.1H238.2z"></path>
	<path class="st6" d="M248,95.9c0.1,0,0.2,0,0.2,0.1c0.1,0.1,0.1,0.1,0.1,0.2v5.6c0,0.1,0,0.2-0.1,0.2c-0.1,0.1-0.1,0.1-0.2,0.1   h-0.4c-0.1,0-0.2,0-0.2-0.1c-0.1-0.1-0.1-0.1-0.1-0.2v-2.3h-3.4v2.3c0,0.1,0,0.2-0.1,0.2c-0.1,0.1-0.1,0.1-0.2,0.1h-0.4   c-0.1,0-0.2,0-0.2-0.1c-0.1-0.1-0.1-0.1-0.1-0.2v-5.6c0-0.1,0-0.2,0.1-0.2c0.1-0.1,0.1-0.1,0.2-0.1h0.4c0.1,0,0.2,0,0.2,0.1   c0.1,0.1,0.1,0.1,0.1,0.2v2.2h3.4v-2.2c0-0.1,0-0.2,0.1-0.2c0.1-0.1,0.1-0.1,0.2-0.1H248z"></path>
	<path class="st6" d="M255.1,95.8c0.4,0,0.8,0.1,1.2,0.2s0.6,0.3,0.9,0.5c0.2,0.2,0.4,0.5,0.6,0.8s0.2,0.7,0.3,1.1   c0,0.1,0,0.2,0,0.3c0,0.1,0,0.2,0,0.3s0,0.2,0,0.3c0,0.1,0,0.2,0,0.2c0,0.4-0.1,0.8-0.3,1.1c-0.1,0.3-0.3,0.6-0.6,0.8   c-0.2,0.2-0.5,0.4-0.9,0.5s-0.7,0.2-1.2,0.2s-0.8-0.1-1.2-0.2s-0.6-0.3-0.9-0.5c-0.2-0.2-0.4-0.5-0.6-0.8c-0.1-0.3-0.2-0.7-0.3-1.1   c0-0.1,0-0.1,0-0.2c0-0.1,0-0.2,0-0.3s0-0.2,0-0.3c0-0.1,0-0.2,0-0.3c0-0.4,0.1-0.8,0.3-1.1c0.1-0.3,0.3-0.6,0.6-0.8   c0.2-0.2,0.5-0.4,0.9-0.5S254.7,95.8,255.1,95.8z M256.8,99.5c0-0.1,0-0.3,0-0.5s0-0.4,0-0.5c0-0.2-0.1-0.5-0.2-0.7   s-0.2-0.4-0.3-0.5c-0.1-0.2-0.3-0.3-0.5-0.4c-0.2-0.1-0.5-0.1-0.7-0.1s-0.5,0-0.7,0.1s-0.4,0.2-0.5,0.4c-0.1,0.2-0.3,0.3-0.3,0.5   c-0.1,0.2-0.1,0.4-0.2,0.7c0,0.1,0,0.3,0,0.5s0,0.4,0,0.5c0,0.2,0.1,0.5,0.2,0.7c0.1,0.2,0.2,0.4,0.3,0.5c0.1,0.2,0.3,0.3,0.5,0.4   s0.5,0.1,0.7,0.1s0.5,0,0.7-0.1c0.2-0.1,0.4-0.2,0.5-0.4c0.1-0.2,0.3-0.3,0.3-0.5S256.8,99.8,256.8,99.5z"></path>
	<path class="st6" d="M261.6,98.4c0-0.4,0.1-0.7,0.3-1c0.1-0.3,0.3-0.6,0.6-0.8c0.2-0.2,0.5-0.4,0.8-0.6c0.3-0.1,0.7-0.2,1.1-0.2   c0.4,0,0.8,0.1,1.2,0.2c0.3,0.1,0.6,0.3,0.9,0.6c0.2,0.3,0.4,0.6,0.6,1c0.1,0.4,0.2,0.8,0.2,1.3v0.3c0,0.1,0,0.2-0.1,0.2   c-0.1,0.1-0.1,0.1-0.2,0.1h-4.1v0.1c0,0.5,0.2,1,0.5,1.3c0.3,0.3,0.7,0.4,1.2,0.4c0.4,0,0.8-0.1,1-0.2c0.2-0.1,0.4-0.3,0.5-0.4   c0.1-0.1,0.1-0.1,0.2-0.1c0,0,0.1,0,0.2,0h0.4c0.1,0,0.2,0,0.2,0.1c0.1,0.1,0.1,0.1,0.1,0.2c0,0.1-0.1,0.3-0.2,0.5   s-0.3,0.3-0.5,0.5c-0.2,0.1-0.5,0.3-0.8,0.4c-0.3,0.1-0.7,0.2-1.1,0.2c-0.4,0-0.8-0.1-1.1-0.2c-0.3-0.1-0.6-0.3-0.8-0.6   c-0.2-0.2-0.4-0.5-0.6-0.9s-0.2-0.7-0.3-1.1C261.5,99.2,261.5,98.8,261.6,98.4z M262.6,98.5h3.4v0c0-0.5-0.2-0.9-0.5-1.2   c-0.3-0.3-0.7-0.4-1.2-0.4c-0.2,0-0.4,0-0.6,0.1s-0.4,0.2-0.5,0.3c-0.2,0.1-0.3,0.3-0.4,0.5C262.7,98,262.7,98.2,262.6,98.5   L262.6,98.5z"></path>
	<path class="st6" d="M275.8,100.6c0-0.3,0.1-0.6,0.2-0.8c0.1-0.2,0.3-0.4,0.5-0.6s0.5-0.3,0.8-0.4c0.3-0.1,0.6-0.2,1-0.2l1.7-0.3   V98c0-0.4-0.1-0.7-0.4-0.9c-0.3-0.2-0.6-0.3-1-0.3c-0.4,0-0.6,0.1-0.8,0.2c-0.2,0.1-0.3,0.3-0.5,0.5c0,0.1-0.1,0.1-0.2,0.1   c-0.1,0-0.1,0-0.2,0h-0.4c-0.1,0-0.2,0-0.2-0.1c-0.1-0.1-0.1-0.1-0.1-0.2c0-0.2,0.1-0.4,0.2-0.5c0.1-0.2,0.3-0.3,0.5-0.5   c0.2-0.1,0.5-0.3,0.7-0.4c0.3-0.1,0.6-0.1,0.9-0.1c0.4,0,0.7,0.1,1,0.2c0.3,0.1,0.6,0.3,0.8,0.5s0.4,0.4,0.5,0.7s0.2,0.6,0.2,1v3.7   c0,0.1,0,0.2-0.1,0.2c-0.1,0.1-0.1,0.1-0.2,0.1h-0.4c-0.1,0-0.2,0-0.2-0.1c-0.1-0.1-0.1-0.1-0.1-0.2v-0.5c-0.1,0.2-0.2,0.3-0.3,0.4   c-0.2,0.1-0.3,0.2-0.5,0.3s-0.4,0.1-0.6,0.2s-0.4,0.1-0.6,0.1c-0.3,0-0.6,0-0.9-0.1c-0.3-0.1-0.5-0.2-0.7-0.4   c-0.2-0.1-0.3-0.3-0.4-0.5C275.9,101,275.8,100.8,275.8,100.6z M278,101.2c0.3,0,0.6,0,0.8-0.1s0.4-0.2,0.6-0.4s0.3-0.3,0.4-0.6   c0.1-0.2,0.1-0.5,0.1-0.7v-0.3l-1.4,0.2c-0.5,0.1-0.9,0.2-1.2,0.4s-0.4,0.4-0.4,0.7c0,0.1,0,0.2,0.1,0.3c0,0.1,0.1,0.2,0.2,0.3   s0.2,0.1,0.3,0.2C277.7,101.2,277.8,101.2,278,101.2z"></path>
	<path class="st6" d="M289.8,95.9c0.1,0,0.2,0,0.2,0.1c0.1,0.1,0.1,0.1,0.1,0.2v0.4c0,0.1,0,0.2-0.1,0.2c-0.1,0.1-0.1,0.1-0.2,0.1   h-3.5v4.9c0,0.1,0,0.2-0.1,0.2c-0.1,0.1-0.1,0.1-0.2,0.1h-0.4c-0.1,0-0.2,0-0.2-0.1c-0.1-0.1-0.1-0.1-0.1-0.2v-5.6   c0-0.1,0-0.2,0.1-0.2c0.1-0.1,0.1-0.1,0.2-0.1H289.8z"></path>
	<path class="st6" d="M293.1,98.4c0-0.4,0.1-0.7,0.3-1c0.1-0.3,0.3-0.6,0.6-0.8c0.2-0.2,0.5-0.4,0.8-0.6c0.3-0.1,0.7-0.2,1.1-0.2   c0.4,0,0.8,0.1,1.2,0.2c0.3,0.1,0.6,0.3,0.9,0.6c0.2,0.3,0.4,0.6,0.6,1c0.1,0.4,0.2,0.8,0.2,1.3v0.3c0,0.1,0,0.2-0.1,0.2   c-0.1,0.1-0.1,0.1-0.2,0.1h-4.1v0.1c0,0.5,0.2,1,0.5,1.3c0.3,0.3,0.7,0.4,1.2,0.4c0.4,0,0.8-0.1,1-0.2c0.2-0.1,0.4-0.3,0.5-0.4   c0.1-0.1,0.1-0.1,0.2-0.1c0,0,0.1,0,0.2,0h0.4c0.1,0,0.2,0,0.2,0.1c0.1,0.1,0.1,0.1,0.1,0.2c0,0.1-0.1,0.3-0.2,0.5   s-0.3,0.3-0.5,0.5c-0.2,0.1-0.5,0.3-0.8,0.4c-0.3,0.1-0.7,0.2-1.1,0.2c-0.4,0-0.8-0.1-1.1-0.2c-0.3-0.1-0.6-0.3-0.8-0.6   c-0.2-0.2-0.4-0.5-0.6-0.9s-0.2-0.7-0.3-1.1C293.1,99.2,293.1,98.8,293.1,98.4z M294.2,98.5h3.4v0c0-0.5-0.2-0.9-0.5-1.2   c-0.3-0.3-0.7-0.4-1.2-0.4c-0.2,0-0.4,0-0.6,0.1s-0.4,0.2-0.5,0.3c-0.2,0.1-0.3,0.3-0.4,0.5C294.3,98,294.2,98.2,294.2,98.5   L294.2,98.5z"></path>
	<path class="st6" d="M307.8,95.9c0.1,0,0.2,0,0.2,0.1c0.1,0.1,0.1,0.1,0.1,0.2v5.6c0,0.1,0,0.2-0.1,0.2c-0.1,0.1-0.1,0.1-0.2,0.1   h-0.4c-0.1,0-0.2,0-0.2-0.1c-0.1-0.1-0.1-0.1-0.1-0.2v-2.3h-3.4v2.3c0,0.1,0,0.2-0.1,0.2c-0.1,0.1-0.1,0.1-0.2,0.1h-0.4   c-0.1,0-0.2,0-0.2-0.1c-0.1-0.1-0.1-0.1-0.1-0.2v-5.6c0-0.1,0-0.2,0.1-0.2c0.1-0.1,0.1-0.1,0.2-0.1h0.4c0.1,0,0.2,0,0.2,0.1   c0.1,0.1,0.1,0.1,0.1,0.2v2.2h3.4v-2.2c0-0.1,0-0.2,0.1-0.2c0.1-0.1,0.1-0.1,0.2-0.1H307.8z"></path>
	<path class="st6" d="M317.1,95.9c0.1,0,0.2,0,0.2,0.1c0.1,0.1,0.1,0.1,0.1,0.2v0.4c0,0.1,0,0.2-0.1,0.2c-0.1,0.1-0.1,0.1-0.2,0.1   h-2.1v4.9c0,0.1,0,0.2-0.1,0.2c-0.1,0.1-0.1,0.1-0.2,0.1h-0.4c-0.1,0-0.2,0-0.2-0.1c-0.1-0.1-0.1-0.1-0.1-0.2v-4.9h-2.1   c-0.1,0-0.2,0-0.2-0.1c-0.1-0.1-0.1-0.1-0.1-0.2v-0.4c0-0.1,0-0.2,0.1-0.2c0.1-0.1,0.1-0.1,0.2-0.1H317.1z"></path>
	<path class="st6" d="M321.6,99.4c0,0.3,0.1,0.6,0.2,0.8c0.1,0.2,0.2,0.4,0.4,0.6c0.2,0.1,0.3,0.2,0.5,0.3c0.2,0.1,0.4,0.1,0.6,0.1   c0.4,0,0.7-0.1,1-0.2c0.3-0.1,0.5-0.4,0.6-0.7c0.1-0.1,0.1-0.2,0.2-0.3c0.1,0,0.1-0.1,0.2-0.1h0.4c0.1,0,0.2,0,0.2,0.1   c0.1,0.1,0.1,0.1,0.1,0.2c0,0.2-0.1,0.4-0.2,0.6c-0.1,0.2-0.3,0.4-0.5,0.6c-0.2,0.2-0.5,0.4-0.8,0.5s-0.7,0.2-1.2,0.2   s-0.8-0.1-1.2-0.2c-0.3-0.1-0.6-0.3-0.9-0.6c-0.2-0.2-0.4-0.5-0.6-0.9s-0.2-0.7-0.2-1.1c0-0.1,0-0.3,0-0.5c0-0.2,0-0.3,0-0.5   c0-0.4,0.1-0.7,0.2-1.1c0.1-0.3,0.3-0.6,0.5-0.9c0.2-0.2,0.5-0.4,0.9-0.6c0.3-0.1,0.7-0.2,1.2-0.2s0.8,0.1,1.2,0.2s0.6,0.3,0.8,0.5   c0.2,0.2,0.4,0.4,0.5,0.6c0.1,0.2,0.2,0.4,0.2,0.6c0,0.1,0,0.2-0.1,0.2c-0.1,0.1-0.1,0.1-0.2,0.1h-0.4c-0.1,0-0.2,0-0.2-0.1   c-0.1,0-0.1-0.1-0.2-0.3c-0.2-0.3-0.4-0.6-0.6-0.7c-0.3-0.1-0.6-0.2-1-0.2c-0.2,0-0.4,0-0.6,0.1c-0.2,0.1-0.4,0.2-0.5,0.3   s-0.3,0.3-0.4,0.6c-0.1,0.2-0.2,0.5-0.2,0.8C321.6,98.9,321.6,99.2,321.6,99.4z"></path>
	<path class="st6" d="M334.7,95.9c0.1,0,0.2,0,0.2,0.1c0.1,0.1,0.1,0.1,0.1,0.2v0.4c0,0.1,0,0.2-0.1,0.2c-0.1,0.1-0.1,0.1-0.2,0.1   h-2.1v4.9c0,0.1,0,0.2-0.1,0.2c-0.1,0.1-0.1,0.1-0.2,0.1h-0.4c-0.1,0-0.2,0-0.2-0.1c-0.1-0.1-0.1-0.1-0.1-0.2v-4.9h-2.1   c-0.1,0-0.2,0-0.2-0.1c-0.1-0.1-0.1-0.1-0.1-0.2v-0.4c0-0.1,0-0.2,0.1-0.2c0.1-0.1,0.1-0.1,0.2-0.1H334.7z"></path>
	<path class="st6" d="M338.7,102.1c-0.1,0-0.1,0-0.2-0.1s-0.1-0.1-0.1-0.2v-5.8c0-0.1,0-0.1,0.1-0.2s0.1-0.1,0.2-0.1h3   c0.7,0,1.2,0.2,1.6,0.5c0.4,0.3,0.6,0.7,0.6,1.2c0,0.2,0,0.3-0.1,0.5c0,0.1-0.1,0.3-0.2,0.4c-0.1,0.1-0.1,0.2-0.2,0.3   s-0.2,0.2-0.3,0.2c0.3,0.2,0.6,0.4,0.7,0.6s0.2,0.5,0.2,0.8c0,0.6-0.2,1-0.6,1.3c-0.4,0.3-0.9,0.5-1.6,0.5H338.7z M339.6,96.9v1.5   h2c0.4,0,0.7-0.1,0.9-0.2c0.2-0.1,0.3-0.3,0.3-0.6s-0.1-0.5-0.4-0.6c-0.2-0.1-0.6-0.1-1-0.1H339.6z M339.6,99.5v1.6h2   c0.4,0,0.7-0.1,1-0.2c0.2-0.1,0.4-0.3,0.4-0.6c0-0.3-0.1-0.5-0.3-0.6c-0.2-0.1-0.5-0.2-0.9-0.2H339.6z"></path>
	<path class="st6" d="M350.5,95.8c0.4,0,0.8,0.1,1.2,0.2s0.6,0.3,0.9,0.5c0.2,0.2,0.4,0.5,0.6,0.8s0.2,0.7,0.3,1.1   c0,0.1,0,0.2,0,0.3c0,0.1,0,0.2,0,0.3s0,0.2,0,0.3c0,0.1,0,0.2,0,0.2c0,0.4-0.1,0.8-0.3,1.1c-0.1,0.3-0.3,0.6-0.6,0.8   c-0.2,0.2-0.5,0.4-0.9,0.5s-0.7,0.2-1.2,0.2s-0.8-0.1-1.2-0.2s-0.6-0.3-0.9-0.5c-0.2-0.2-0.4-0.5-0.6-0.8c-0.1-0.3-0.2-0.7-0.3-1.1   c0-0.1,0-0.1,0-0.2c0-0.1,0-0.2,0-0.3s0-0.2,0-0.3c0-0.1,0-0.2,0-0.3c0-0.4,0.1-0.8,0.3-1.1c0.1-0.3,0.3-0.6,0.6-0.8   c0.2-0.2,0.5-0.4,0.9-0.5S350.1,95.8,350.5,95.8z M352.3,99.5c0-0.1,0-0.3,0-0.5s0-0.4,0-0.5c0-0.2-0.1-0.5-0.2-0.7   s-0.2-0.4-0.3-0.5c-0.1-0.2-0.3-0.3-0.5-0.4c-0.2-0.1-0.5-0.1-0.7-0.1s-0.5,0-0.7,0.1s-0.4,0.2-0.5,0.4c-0.1,0.2-0.3,0.3-0.3,0.5   c-0.1,0.2-0.1,0.4-0.2,0.7c0,0.1,0,0.3,0,0.5s0,0.4,0,0.5c0,0.2,0.1,0.5,0.2,0.7c0.1,0.2,0.2,0.4,0.3,0.5c0.1,0.2,0.3,0.3,0.5,0.4   s0.5,0.1,0.7,0.1s0.5,0,0.7-0.1c0.2-0.1,0.4-0.2,0.5-0.4c0.1-0.2,0.3-0.3,0.3-0.5S352.2,99.8,352.3,99.5z"></path>
</g>
</svg>